<mxfile host="app.diagrams.net" agent="Mozilla/5.0 (Windows NT 10.0; Win64; x64) AppleWebKit/537.36 (KHTML, like Gecko) Chrome/131.0.0.0 Safari/537.36" version="24.9.0">
  <diagram name="Page-1" id="Ow0gPgDbFCdhYCQQpAOG">
    <mxGraphModel dx="2037" dy="757" grid="1" gridSize="10" guides="1" tooltips="1" connect="1" arrows="1" fold="1" page="1" pageScale="1" pageWidth="827" pageHeight="1169" math="0" shadow="0">
      <root>
        <mxCell id="0" />
        <mxCell id="1" parent="0" />
        <mxCell id="y3VPxiQYewquOPu3EQr3-83" value="" style="rounded=0;whiteSpace=wrap;html=1;" vertex="1" parent="1">
          <mxGeometry x="100" y="40" width="670" height="720" as="geometry" />
        </mxCell>
        <mxCell id="y3VPxiQYewquOPu3EQr3-69" value="" style="rounded=0;whiteSpace=wrap;html=1;fillColor=none;" vertex="1" parent="1">
          <mxGeometry x="134" y="425" width="138" height="150" as="geometry" />
        </mxCell>
        <mxCell id="y3VPxiQYewquOPu3EQr3-70" value="" style="rounded=0;whiteSpace=wrap;html=1;fillColor=none;" vertex="1" parent="1">
          <mxGeometry x="283" y="425" width="138" height="150" as="geometry" />
        </mxCell>
        <mxCell id="y3VPxiQYewquOPu3EQr3-71" value="" style="rounded=0;whiteSpace=wrap;html=1;fillColor=none;" vertex="1" parent="1">
          <mxGeometry x="442" y="425" width="138" height="150" as="geometry" />
        </mxCell>
        <mxCell id="y3VPxiQYewquOPu3EQr3-72" value="" style="rounded=0;whiteSpace=wrap;html=1;fillColor=none;" vertex="1" parent="1">
          <mxGeometry x="600" y="425" width="138" height="150" as="geometry" />
        </mxCell>
        <mxCell id="y3VPxiQYewquOPu3EQr3-67" value="" style="rounded=0;whiteSpace=wrap;html=1;fillColor=none;" vertex="1" parent="1">
          <mxGeometry x="439" y="260" width="138" height="150" as="geometry" />
        </mxCell>
        <mxCell id="y3VPxiQYewquOPu3EQr3-68" value="" style="rounded=0;whiteSpace=wrap;html=1;fillColor=none;" vertex="1" parent="1">
          <mxGeometry x="600" y="260" width="138" height="150" as="geometry" />
        </mxCell>
        <mxCell id="y3VPxiQYewquOPu3EQr3-66" value="" style="rounded=0;whiteSpace=wrap;html=1;fillColor=none;" vertex="1" parent="1">
          <mxGeometry x="286" y="260" width="138" height="150" as="geometry" />
        </mxCell>
        <mxCell id="y3VPxiQYewquOPu3EQr3-73" value="" style="rounded=0;whiteSpace=wrap;html=1;fillColor=none;" vertex="1" parent="1">
          <mxGeometry x="134" y="595" width="138" height="150" as="geometry" />
        </mxCell>
        <mxCell id="y3VPxiQYewquOPu3EQr3-65" value="" style="rounded=0;whiteSpace=wrap;html=1;fillColor=none;" vertex="1" parent="1">
          <mxGeometry x="132" y="260" width="138" height="150" as="geometry" />
        </mxCell>
        <mxCell id="y3VPxiQYewquOPu3EQr3-59" value="" style="rounded=0;whiteSpace=wrap;html=1;fillColor=none;" vertex="1" parent="1">
          <mxGeometry x="600" y="95" width="138" height="150" as="geometry" />
        </mxCell>
        <mxCell id="y3VPxiQYewquOPu3EQr3-3" value="&lt;p style=&quot;line-height: 120%;&quot;&gt;&lt;font style=&quot;font-size: 22px;&quot;&gt;Docker Architecture&amp;nbsp;&lt;/font&gt;&lt;/p&gt;" style="text;html=1;align=center;verticalAlign=middle;resizable=0;points=[];autosize=1;strokeColor=none;fillColor=none;" vertex="1" parent="1">
          <mxGeometry x="304" y="770" width="220" height="50" as="geometry" />
        </mxCell>
        <mxCell id="y3VPxiQYewquOPu3EQr3-4" value="" style="shape=cube;whiteSpace=wrap;html=1;boundedLbl=1;backgroundOutline=1;darkOpacity=0.05;darkOpacity2=0.1;size=10;" vertex="1" parent="1">
          <mxGeometry x="491" y="295" width="40" height="40" as="geometry" />
        </mxCell>
        <mxCell id="y3VPxiQYewquOPu3EQr3-5" value="" style="shape=cube;whiteSpace=wrap;html=1;boundedLbl=1;backgroundOutline=1;darkOpacity=0.05;darkOpacity2=0.1;size=10;" vertex="1" parent="1">
          <mxGeometry x="183" y="480" width="40" height="40" as="geometry" />
        </mxCell>
        <mxCell id="y3VPxiQYewquOPu3EQr3-6" value="" style="shape=cube;whiteSpace=wrap;html=1;boundedLbl=1;backgroundOutline=1;darkOpacity=0.05;darkOpacity2=0.1;size=10;" vertex="1" parent="1">
          <mxGeometry x="340" y="480" width="40" height="40" as="geometry" />
        </mxCell>
        <mxCell id="y3VPxiQYewquOPu3EQr3-7" value="gen-picture-ms&lt;div&gt;:8084&lt;/div&gt;" style="text;html=1;align=center;verticalAlign=middle;resizable=0;points=[];autosize=1;strokeColor=none;fillColor=none;" vertex="1" parent="1">
          <mxGeometry x="310" y="520" width="100" height="40" as="geometry" />
        </mxCell>
        <mxCell id="y3VPxiQYewquOPu3EQr3-8" value="gen-properties&lt;div&gt;:8083&lt;/div&gt;" style="text;html=1;align=center;verticalAlign=middle;resizable=0;points=[];autosize=1;strokeColor=none;fillColor=none;" vertex="1" parent="1">
          <mxGeometry x="153" y="520" width="100" height="40" as="geometry" />
        </mxCell>
        <mxCell id="y3VPxiQYewquOPu3EQr3-9" value="gen-text-ms&lt;div&gt;:8082&lt;/div&gt;" style="text;html=1;align=center;verticalAlign=middle;resizable=0;points=[];autosize=1;strokeColor=none;fillColor=none;" vertex="1" parent="1">
          <mxGeometry x="466" y="335" width="90" height="40" as="geometry" />
        </mxCell>
        <mxCell id="y3VPxiQYewquOPu3EQr3-10" value="" style="shape=cube;whiteSpace=wrap;html=1;boundedLbl=1;backgroundOutline=1;darkOpacity=0.05;darkOpacity2=0.1;size=10;" vertex="1" parent="1">
          <mxGeometry x="332" y="295" width="40" height="40" as="geometry" />
        </mxCell>
        <mxCell id="y3VPxiQYewquOPu3EQr3-11" value="UserServer" style="text;html=1;align=center;verticalAlign=middle;resizable=0;points=[];autosize=1;strokeColor=none;fillColor=none;" vertex="1" parent="1">
          <mxGeometry x="312" y="335" width="80" height="30" as="geometry" />
        </mxCell>
        <mxCell id="y3VPxiQYewquOPu3EQr3-12" value=":8081" style="text;html=1;align=center;verticalAlign=middle;resizable=0;points=[];autosize=1;strokeColor=none;fillColor=none;" vertex="1" parent="1">
          <mxGeometry x="327" y="355" width="50" height="30" as="geometry" />
        </mxCell>
        <mxCell id="y3VPxiQYewquOPu3EQr3-13" value="" style="ellipse;shape=cloud;whiteSpace=wrap;html=1;" vertex="1" parent="1">
          <mxGeometry x="173" y="295" width="60" height="50" as="geometry" />
        </mxCell>
        <mxCell id="y3VPxiQYewquOPu3EQr3-14" value="Discovery" style="text;html=1;align=center;verticalAlign=middle;resizable=0;points=[];autosize=1;strokeColor=none;fillColor=none;" vertex="1" parent="1">
          <mxGeometry x="163" y="345" width="80" height="30" as="geometry" />
        </mxCell>
        <mxCell id="y3VPxiQYewquOPu3EQr3-15" value=":8761" style="text;html=1;align=center;verticalAlign=middle;resizable=0;points=[];autosize=1;strokeColor=none;fillColor=none;" vertex="1" parent="1">
          <mxGeometry x="178" y="365" width="50" height="30" as="geometry" />
        </mxCell>
        <mxCell id="y3VPxiQYewquOPu3EQr3-16" value="" style="shape=hexagon;perimeter=hexagonPerimeter2;whiteSpace=wrap;html=1;fixedSize=1;" vertex="1" parent="1">
          <mxGeometry x="634" y="140" width="70" height="60" as="geometry" />
        </mxCell>
        <mxCell id="y3VPxiQYewquOPu3EQr3-17" value="Gateway" style="text;html=1;align=center;verticalAlign=middle;whiteSpace=wrap;rounded=0;" vertex="1" parent="1">
          <mxGeometry x="639" y="155" width="60" height="30" as="geometry" />
        </mxCell>
        <mxCell id="y3VPxiQYewquOPu3EQr3-18" value=":8080" style="text;html=1;align=center;verticalAlign=middle;resizable=0;points=[];autosize=1;strokeColor=none;fillColor=none;" vertex="1" parent="1">
          <mxGeometry x="644" y="200" width="50" height="30" as="geometry" />
        </mxCell>
        <mxCell id="y3VPxiQYewquOPu3EQr3-19" value="" style="rounded=0;whiteSpace=wrap;html=1;fillColor=none;" vertex="1" parent="1">
          <mxGeometry x="132" y="95" width="138" height="150" as="geometry" />
        </mxCell>
        <mxCell id="y3VPxiQYewquOPu3EQr3-20" value="" style="rhombus;whiteSpace=wrap;html=1;" vertex="1" parent="1">
          <mxGeometry x="183" y="165" width="30" height="30" as="geometry" />
        </mxCell>
        <mxCell id="y3VPxiQYewquOPu3EQr3-21" value="Activemq" style="text;html=1;align=center;verticalAlign=middle;resizable=0;points=[];autosize=1;strokeColor=none;fillColor=none;" vertex="1" parent="1">
          <mxGeometry x="163" y="135" width="70" height="30" as="geometry" />
        </mxCell>
        <mxCell id="y3VPxiQYewquOPu3EQr3-22" value=":61616" style="text;html=1;align=center;verticalAlign=middle;resizable=0;points=[];autosize=1;strokeColor=none;fillColor=none;" vertex="1" parent="1">
          <mxGeometry x="168" y="195" width="60" height="30" as="geometry" />
        </mxCell>
        <mxCell id="y3VPxiQYewquOPu3EQr3-27" value="Active Container" style="rounded=0;whiteSpace=wrap;html=1;" vertex="1" parent="1">
          <mxGeometry x="132" y="95" width="98" height="25" as="geometry" />
        </mxCell>
        <mxCell id="y3VPxiQYewquOPu3EQr3-29" value="docker-network" style="rounded=0;whiteSpace=wrap;html=1;" vertex="1" parent="1">
          <mxGeometry x="110" y="50" width="98" height="25" as="geometry" />
        </mxCell>
        <mxCell id="y3VPxiQYewquOPu3EQr3-30" value="" style="rounded=0;whiteSpace=wrap;html=1;fillColor=none;" vertex="1" parent="1">
          <mxGeometry x="286" y="95" width="138" height="150" as="geometry" />
        </mxCell>
        <mxCell id="y3VPxiQYewquOPu3EQr3-31" value="Picture-gen Container" style="rounded=0;whiteSpace=wrap;html=1;" vertex="1" parent="1">
          <mxGeometry x="286" y="95" width="124" height="25" as="geometry" />
        </mxCell>
        <mxCell id="y3VPxiQYewquOPu3EQr3-32" value="" style="rounded=0;whiteSpace=wrap;html=1;fillColor=none;" vertex="1" parent="1">
          <mxGeometry x="442" y="95" width="138" height="150" as="geometry" />
        </mxCell>
        <mxCell id="y3VPxiQYewquOPu3EQr3-35" value="Desc-gen Container" style="rounded=0;whiteSpace=wrap;html=1;" vertex="1" parent="1">
          <mxGeometry x="442" y="95" width="118" height="25" as="geometry" />
        </mxCell>
        <mxCell id="y3VPxiQYewquOPu3EQr3-36" value="" style="ellipse;shape=cloud;whiteSpace=wrap;html=1;" vertex="1" parent="1">
          <mxGeometry x="329.5" y="135" width="45" height="40" as="geometry" />
        </mxCell>
        <mxCell id="y3VPxiQYewquOPu3EQr3-37" value="&lt;font style=&quot;forced-color-adjust: none; color: rgb(0, 0, 0); font-family: Helvetica; font-style: normal; font-variant-ligatures: normal; font-variant-caps: normal; font-weight: 400; letter-spacing: normal; orphans: 2; text-align: center; text-indent: 0px; text-transform: none; widows: 2; word-spacing: 0px; -webkit-text-stroke-width: 0px; white-space: nowrap; background-color: rgb(251, 251, 251); text-decoration-thickness: initial; text-decoration-style: initial; text-decoration-color: initial; font-size: 12px;&quot;&gt;picture-gen&lt;/font&gt;&lt;div style=&quot;forced-color-adjust: none; color: rgb(0, 0, 0); font-family: Helvetica; font-style: normal; font-variant-ligatures: normal; font-variant-caps: normal; font-weight: 400; letter-spacing: normal; orphans: 2; text-align: center; text-indent: 0px; text-transform: none; widows: 2; word-spacing: 0px; -webkit-text-stroke-width: 0px; white-space: nowrap; background-color: rgb(251, 251, 251); text-decoration-thickness: initial; text-decoration-style: initial; text-decoration-color: initial;&quot;&gt;&lt;font style=&quot;forced-color-adjust: none; font-size: 12px;&quot;&gt;docker&lt;/font&gt;&lt;/div&gt;&lt;div style=&quot;forced-color-adjust: none; color: rgb(0, 0, 0); font-family: Helvetica; font-style: normal; font-variant-ligatures: normal; font-variant-caps: normal; font-weight: 400; letter-spacing: normal; orphans: 2; text-align: center; text-indent: 0px; text-transform: none; widows: 2; word-spacing: 0px; -webkit-text-stroke-width: 0px; white-space: nowrap; background-color: rgb(251, 251, 251); text-decoration-thickness: initial; text-decoration-style: initial; text-decoration-color: initial;&quot;&gt;&lt;font style=&quot;forced-color-adjust: none; font-size: 12px;&quot;&gt;:10000&lt;/font&gt;&lt;/div&gt;" style="text;whiteSpace=wrap;html=1;" vertex="1" parent="1">
          <mxGeometry x="320" y="175" width="70" height="50" as="geometry" />
        </mxCell>
        <mxCell id="y3VPxiQYewquOPu3EQr3-38" value="" style="ellipse;shape=cloud;whiteSpace=wrap;html=1;" vertex="1" parent="1">
          <mxGeometry x="485.5" y="135" width="45" height="40" as="geometry" />
        </mxCell>
        <mxCell id="y3VPxiQYewquOPu3EQr3-39" value="&lt;font style=&quot;forced-color-adjust: none; color: rgb(0, 0, 0); font-family: Helvetica; font-style: normal; font-variant-ligatures: normal; font-variant-caps: normal; font-weight: 400; letter-spacing: normal; orphans: 2; text-align: center; text-indent: 0px; text-transform: none; widows: 2; word-spacing: 0px; -webkit-text-stroke-width: 0px; white-space: nowrap; background-color: rgb(251, 251, 251); text-decoration-thickness: initial; text-decoration-style: initial; text-decoration-color: initial; font-size: 12px;&quot;&gt;description-gen&lt;/font&gt;&lt;div style=&quot;forced-color-adjust: none; color: rgb(0, 0, 0); font-family: Helvetica; font-style: normal; font-variant-ligatures: normal; font-variant-caps: normal; font-weight: 400; letter-spacing: normal; orphans: 2; text-align: center; text-indent: 0px; text-transform: none; widows: 2; word-spacing: 0px; -webkit-text-stroke-width: 0px; white-space: nowrap; background-color: rgb(251, 251, 251); text-decoration-thickness: initial; text-decoration-style: initial; text-decoration-color: initial;&quot;&gt;&lt;font style=&quot;forced-color-adjust: none; font-size: 12px;&quot;&gt;docker&lt;/font&gt;&lt;/div&gt;&lt;div style=&quot;forced-color-adjust: none; color: rgb(0, 0, 0); font-family: Helvetica; font-style: normal; font-variant-ligatures: normal; font-variant-caps: normal; font-weight: 400; letter-spacing: normal; orphans: 2; text-align: center; text-indent: 0px; text-transform: none; widows: 2; word-spacing: 0px; -webkit-text-stroke-width: 0px; white-space: nowrap; background-color: rgb(251, 251, 251); text-decoration-thickness: initial; text-decoration-style: initial; text-decoration-color: initial;&quot;&gt;&lt;font style=&quot;forced-color-adjust: none; font-size: 12px;&quot;&gt;:11434&lt;/font&gt;&lt;/div&gt;" style="text;whiteSpace=wrap;html=1;" vertex="1" parent="1">
          <mxGeometry x="466" y="175" width="70" height="50" as="geometry" />
        </mxCell>
        <mxCell id="y3VPxiQYewquOPu3EQr3-41" value="" style="shape=cube;whiteSpace=wrap;html=1;boundedLbl=1;backgroundOutline=1;darkOpacity=0.05;darkOpacity2=0.1;size=10;" vertex="1" parent="1">
          <mxGeometry x="659" y="480" width="40" height="40" as="geometry" />
        </mxCell>
        <mxCell id="y3VPxiQYewquOPu3EQr3-42" value="" style="shape=cube;whiteSpace=wrap;html=1;boundedLbl=1;backgroundOutline=1;darkOpacity=0.05;darkOpacity2=0.1;size=10;" vertex="1" parent="1">
          <mxGeometry x="183" y="634" width="40" height="40" as="geometry" />
        </mxCell>
        <mxCell id="y3VPxiQYewquOPu3EQr3-45" value="ms-websocket&lt;br&gt;&lt;div&gt;:8083&lt;/div&gt;" style="text;html=1;align=center;verticalAlign=middle;resizable=0;points=[];autosize=1;strokeColor=none;fillColor=none;" vertex="1" parent="1">
          <mxGeometry x="153" y="674" width="100" height="40" as="geometry" />
        </mxCell>
        <mxCell id="y3VPxiQYewquOPu3EQr3-46" value="ms-game&lt;br&gt;&lt;div&gt;:8082&lt;/div&gt;" style="text;html=1;align=center;verticalAlign=middle;resizable=0;points=[];autosize=1;strokeColor=none;fillColor=none;" vertex="1" parent="1">
          <mxGeometry x="644" y="520" width="70" height="40" as="geometry" />
        </mxCell>
        <mxCell id="y3VPxiQYewquOPu3EQr3-47" value="" style="shape=cube;whiteSpace=wrap;html=1;boundedLbl=1;backgroundOutline=1;darkOpacity=0.05;darkOpacity2=0.1;size=10;" vertex="1" parent="1">
          <mxGeometry x="491" y="480" width="40" height="40" as="geometry" />
        </mxCell>
        <mxCell id="y3VPxiQYewquOPu3EQr3-48" value="ms-chat" style="text;html=1;align=center;verticalAlign=middle;resizable=0;points=[];autosize=1;strokeColor=none;fillColor=none;" vertex="1" parent="1">
          <mxGeometry x="476" y="520" width="70" height="30" as="geometry" />
        </mxCell>
        <mxCell id="y3VPxiQYewquOPu3EQr3-49" value=":8081" style="text;html=1;align=center;verticalAlign=middle;resizable=0;points=[];autosize=1;strokeColor=none;fillColor=none;" vertex="1" parent="1">
          <mxGeometry x="486" y="540" width="50" height="30" as="geometry" />
        </mxCell>
        <mxCell id="y3VPxiQYewquOPu3EQr3-51" value="" style="shape=hexagon;perimeter=hexagonPerimeter2;whiteSpace=wrap;html=1;fixedSize=1;" vertex="1" parent="1">
          <mxGeometry x="634" y="305" width="70" height="60" as="geometry" />
        </mxCell>
        <mxCell id="y3VPxiQYewquOPu3EQr3-52" value="Ngnix" style="text;html=1;align=center;verticalAlign=middle;whiteSpace=wrap;rounded=0;" vertex="1" parent="1">
          <mxGeometry x="639" y="320" width="60" height="30" as="geometry" />
        </mxCell>
        <mxCell id="y3VPxiQYewquOPu3EQr3-60" value="ms-gateway Container" style="rounded=0;whiteSpace=wrap;html=1;" vertex="1" parent="1">
          <mxGeometry x="600" y="95" width="130" height="25" as="geometry" />
        </mxCell>
        <mxCell id="y3VPxiQYewquOPu3EQr3-74" value="ms-discovery Container" style="rounded=0;whiteSpace=wrap;html=1;" vertex="1" parent="1">
          <mxGeometry x="132" y="260" width="138" height="25" as="geometry" />
        </mxCell>
        <mxCell id="y3VPxiQYewquOPu3EQr3-75" value="ms-mono Container" style="rounded=0;whiteSpace=wrap;html=1;" vertex="1" parent="1">
          <mxGeometry x="286" y="260" width="124" height="25" as="geometry" />
        </mxCell>
        <mxCell id="y3VPxiQYewquOPu3EQr3-76" value="ms-gen-text Container" style="rounded=0;whiteSpace=wrap;html=1;" vertex="1" parent="1">
          <mxGeometry x="439" y="260" width="124" height="25" as="geometry" />
        </mxCell>
        <mxCell id="y3VPxiQYewquOPu3EQr3-77" value="Ngnix Container" style="rounded=0;whiteSpace=wrap;html=1;" vertex="1" parent="1">
          <mxGeometry x="600" y="260" width="124" height="25" as="geometry" />
        </mxCell>
        <mxCell id="y3VPxiQYewquOPu3EQr3-78" value="ms-gen-prop Container" style="rounded=0;whiteSpace=wrap;html=1;" vertex="1" parent="1">
          <mxGeometry x="134" y="425" width="136" height="25" as="geometry" />
        </mxCell>
        <mxCell id="y3VPxiQYewquOPu3EQr3-79" value="ms-gen-pic Container" style="rounded=0;whiteSpace=wrap;html=1;" vertex="1" parent="1">
          <mxGeometry x="283" y="425" width="137" height="25" as="geometry" />
        </mxCell>
        <mxCell id="y3VPxiQYewquOPu3EQr3-80" value="ms-chat Container" style="rounded=0;whiteSpace=wrap;html=1;" vertex="1" parent="1">
          <mxGeometry x="442" y="425" width="124" height="25" as="geometry" />
        </mxCell>
        <mxCell id="y3VPxiQYewquOPu3EQr3-81" value="ms-game Container" style="rounded=0;whiteSpace=wrap;html=1;" vertex="1" parent="1">
          <mxGeometry x="600" y="425" width="130" height="25" as="geometry" />
        </mxCell>
        <mxCell id="y3VPxiQYewquOPu3EQr3-82" value="ms-websocket container" style="rounded=0;whiteSpace=wrap;html=1;" vertex="1" parent="1">
          <mxGeometry x="134" y="595" width="136" height="25" as="geometry" />
        </mxCell>
      </root>
    </mxGraphModel>
  </diagram>
</mxfile>
